<svg width="274" height="224" viewBox="0 0 274 224" fill="none" xmlns="http://www.w3.org/2000/svg">
<g clip-path="url(#clip0_1_8)">
<path fill-rule="evenodd" clip-rule="evenodd" d="M-34.692 199.101C3.24699 288.538 168.767 341.017 211.96 268.52C255.154 196.023 145.861 182.867 107.225 107.951C68.59 33.035 38.568 -13.723 -17.257 3.34399C-73.081 20.412 -72.631 109.664 -34.692 199.101Z" fill="#6259FF"/>
<path fill-rule="evenodd" clip-rule="evenodd" d="M233.095 257.153C293.774 228.875 325.934 113.627 274.97 85.625C224.005 57.622 217.573 133.204 166.911 161.612C116.249 190.02 84.771 211.819 97.867 249.853C110.963 287.887 172.416 285.431 233.095 257.153Z" fill="#F9818E"/>
<path d="M165.305 125.097L175.912 114.291M209.461 130.581L196.955 120.078M187.56 144.991L180.652 159.789" stroke="white" stroke-width="5" stroke-linecap="round" stroke-linejoin="bevel"/>
<path d="M0.304993 202.891C37.308 202.891 67.305 172.894 67.305 135.891C67.305 98.888 37.308 68.891 0.304993 68.891C-36.698 68.891 -66.695 98.888 -66.695 135.891C-66.695 172.894 -36.698 202.891 0.304993 202.891Z" fill="#FFAF7E"/>
</g>
<defs>
<clipPath id="clip0_1_8">
<rect width="274" height="224" fill="white"/>
</clipPath>
</defs>
</svg>
